<svg width="24" height="24" viewBox="0 0 24 24" fill="none" xmlns="http://www.w3.org/2000/svg">
<path d="M10.0312 18.978C11.5061 18.978 12.9419 18.978 14.4069 18.978C14.1481 18.7143 13.8795 18.5092 13.606 18.309C12.9077 17.7962 12.1605 17.3616 11.428 16.8976C10.6222 16.3848 9.82613 15.8525 9.16196 15.1493C8.47826 14.4265 8.02409 13.5914 7.90688 12.5903C7.87758 12.3217 7.86781 12.3217 7.59433 12.3217C7.25736 12.3217 6.92528 12.3315 6.58831 12.3168C6.4125 12.307 6.31971 12.3608 6.24646 12.5268C6.01693 13.0249 5.4602 13.2935 4.94253 13.1714C4.3858 13.0445 4.00488 12.5756 4 12.0189C4 11.4573 4.37115 10.9934 4.92788 10.8566C5.44555 10.7345 6.00716 10.9934 6.23669 11.4866C6.31483 11.6624 6.40761 11.7161 6.59319 11.7112C6.96434 11.6966 7.3355 11.7064 7.70665 11.7064C7.79944 11.7064 7.86781 11.6966 7.88246 11.5745C8.03874 9.94338 9.01546 8.83481 10.2657 7.91181C10.4268 7.7946 10.5733 7.60414 10.7687 7.59437C10.964 7.58461 11.1154 7.77995 11.2863 7.87762C11.384 7.93134 11.4719 7.99483 11.5696 8.04855C11.6966 8.11692 11.6721 8.17064 11.5647 8.23901C11.1887 8.4783 10.8273 8.73225 10.4854 9.02038C10.2119 9.24991 9.93846 9.47944 9.70893 9.79199C11.3889 9.79199 13.0444 9.79199 14.7146 9.79199C14.6902 9.68944 14.6121 9.63083 14.5486 9.56246C13.9577 8.93736 13.2447 8.46365 12.5268 8.00948C11.6282 7.4381 10.7003 6.91067 9.8652 6.24162C9.14731 5.66047 8.5271 5.00118 8.14617 4.14167C8.03385 3.88284 7.95083 3.61912 7.89223 3.34076C7.83362 3.05751 7.9313 2.82798 8.15594 2.72054C8.36594 2.61799 8.60523 2.67171 8.79081 2.88658C8.86895 2.97937 8.96174 2.96472 9.05452 2.96472C10.9005 2.96472 12.7465 2.96472 14.5925 2.96472C14.8709 2.96472 15.1541 2.95984 15.4325 2.96472C15.5351 2.96472 15.6132 2.9403 15.6816 2.8524C15.8281 2.67171 16.0576 2.62287 16.2578 2.70589C16.4581 2.78891 16.5801 2.96961 16.5606 3.19913C16.5362 3.55564 16.4043 3.88772 16.2627 4.21004C16.1846 4.39073 16.1895 4.4005 16.3897 4.40538C16.9074 4.40538 17.425 4.4005 17.9427 4.41027C18.0892 4.41027 18.1576 4.36143 18.2162 4.22957C18.4652 3.68749 19.0806 3.4189 19.6373 3.59959C20.194 3.7754 20.5554 4.35166 20.4577 4.90839C20.3503 5.51396 19.8473 5.93883 19.2466 5.91442C18.7582 5.89 18.4066 5.6507 18.2015 5.20629C18.1429 5.07932 18.0745 5.04025 17.9378 5.04025C17.2785 5.04513 16.6241 5.04513 15.9648 5.04025C15.8232 5.04025 15.7304 5.08909 15.6425 5.19653C15.1151 5.84605 14.4656 6.35882 13.7818 6.83253C13.6988 6.89113 13.6353 6.89113 13.5474 6.83253C13.3277 6.68602 13.1079 6.54928 12.8833 6.41254C12.7563 6.33929 12.7661 6.28068 12.8833 6.20743C13.357 5.90465 13.8111 5.58233 14.236 5.21118C14.2849 5.16722 14.3288 5.12327 14.4069 5.0549C12.9321 5.0549 11.5012 5.0549 10.0459 5.0549C10.1582 5.20141 10.295 5.29908 10.4219 5.40652C11.1887 6.03651 12.0482 6.52486 12.8784 7.05229C13.7721 7.61391 14.6414 8.20482 15.369 8.98131C16.9708 10.6906 16.9562 13.3717 15.369 15.0516C14.8904 15.5595 14.3532 15.999 13.7818 16.3946C13.6988 16.4532 13.6353 16.4581 13.5523 16.3995C13.3326 16.2579 13.1128 16.1163 12.8881 15.9795C12.7563 15.9014 12.7612 15.8525 12.8881 15.7695C13.4742 15.3935 14.0358 14.9833 14.5193 14.4802C14.5876 14.407 14.6511 14.3289 14.7244 14.2409C14.5583 14.2068 10.0898 14.1921 9.72358 14.2214C9.75776 14.3337 9.84078 14.4021 9.91404 14.4754C10.2803 14.8612 10.6954 15.1884 11.1349 15.4912C11.931 16.043 12.7758 16.5216 13.5816 17.0539C14.3679 17.5764 15.1151 18.1381 15.7011 18.8853C15.7499 18.9487 15.8085 18.9732 15.8916 18.9732C16.5801 18.9732 17.2687 18.9683 17.9573 18.9732C18.0989 18.9732 18.1283 18.8901 18.1722 18.7925C18.392 18.3236 18.8608 18.0502 19.354 18.099C19.8473 18.1429 20.277 18.5141 20.3991 18.9927C20.5456 19.5885 20.2233 20.1892 19.6422 20.3992C19.0854 20.5994 18.4506 20.3454 18.1917 19.7985C18.1185 19.6471 18.0355 19.5934 17.8743 19.5983C17.3762 19.608 16.8732 19.6031 16.375 19.5983C16.2285 19.5983 16.1846 19.6324 16.2578 19.7789C16.3897 20.0475 16.4776 20.3308 16.5411 20.6238C16.6095 20.9364 16.5313 21.1512 16.3116 21.2733C16.0967 21.3905 15.8623 21.3368 15.6474 21.1073C15.5692 21.0243 15.4813 21.0389 15.3934 21.0389C13.9381 21.0389 12.4828 21.0389 11.0275 21.0389C10.3584 21.0389 9.68939 21.0389 9.01546 21.0389C8.92755 21.0389 8.8543 21.0389 8.78593 21.1171C8.60035 21.3319 8.36105 21.3857 8.15106 21.2831C7.92641 21.1757 7.82874 20.9461 7.88734 20.6629C7.99478 20.1648 8.18524 19.6959 8.45872 19.2662C9.02522 18.3871 9.81637 17.7425 10.6661 17.1662C10.7491 17.1125 10.8077 17.1272 10.881 17.176C11.1008 17.3176 11.3205 17.4592 11.5452 17.596C11.6672 17.6692 11.6721 17.7181 11.55 17.7962C11.0666 18.1039 10.5977 18.436 10.1729 18.8169C10.1387 18.8755 10.0996 18.9146 10.0312 18.978ZM12.2191 12.3217C11.174 12.3217 10.124 12.3217 9.07894 12.3168C8.9422 12.3168 8.89825 12.3461 8.91778 12.4926C8.95197 12.7222 9.00569 12.9468 9.07894 13.1666C9.22545 13.5865 9.22545 13.5865 9.66497 13.5865C9.75776 13.5865 9.84567 13.5865 9.93846 13.5865C11.6086 13.5865 13.274 13.5817 14.9441 13.5914C15.1346 13.5914 15.2323 13.5328 15.2958 13.357C15.3934 13.0884 15.4765 12.8149 15.5253 12.5317C15.5546 12.3559 15.5106 12.3119 15.3397 12.3168C14.2995 12.3266 13.2593 12.3217 12.2191 12.3217ZM12.224 11.7112C12.2728 11.7112 12.3217 11.7112 12.3705 11.7112C13.3667 11.7112 14.3679 11.7112 15.3641 11.7112C15.4472 11.7112 15.5595 11.7503 15.5399 11.5843C15.496 11.2375 15.4032 10.9055 15.2567 10.588C15.2127 10.4855 15.1444 10.4415 15.032 10.4415C13.1616 10.4415 11.2912 10.4415 9.42568 10.4415C9.30359 10.4415 9.23522 10.4952 9.19126 10.5978C9.05941 10.8908 8.97639 11.1887 8.92267 11.5061C8.89825 11.6673 8.93732 11.7161 9.10336 11.7112C10.1387 11.7064 11.1789 11.7112 12.224 11.7112ZM12.2142 20.448C12.5512 20.448 12.8833 20.448 13.2202 20.448C13.8942 20.448 14.573 20.448 15.2469 20.448C15.3886 20.448 15.4276 20.4089 15.3593 20.2771C15.2762 20.1208 15.1932 19.9645 15.1102 19.8083C15.0369 19.6617 14.9246 19.6129 14.7586 19.6129C13.1909 19.6178 11.6282 19.6178 10.0605 19.6178C9.38661 19.6178 9.38661 19.6178 9.09848 20.2331C9.00569 20.4334 9.01057 20.448 9.23033 20.448C10.2266 20.448 11.2228 20.448 12.2142 20.448ZM12.2386 3.58494C11.5989 3.58494 10.9591 3.58494 10.3194 3.58494C9.94334 3.58494 9.56242 3.58982 9.18638 3.58494C9.04964 3.58494 9.02034 3.62889 9.07894 3.7461C9.14731 3.88284 9.22545 4.0147 9.28894 4.15144C9.38172 4.35166 9.52335 4.42003 9.748 4.42003C11.2961 4.41027 12.8393 4.41515 14.3874 4.41515C15.0467 4.41515 15.0467 4.41515 15.3299 3.80958C15.4276 3.59959 15.4227 3.58982 15.1932 3.58494C14.2116 3.58494 13.2251 3.58494 12.2386 3.58494Z" fill="black"/>
</svg>
