<svg width="24" height="24" viewBox="0 0 24 24" fill="none" xmlns="http://www.w3.org/2000/svg">
<path d="M4 13V15.5" stroke="#6C6E75" stroke-width="1.5" stroke-linecap="round" stroke-linejoin="round"/>
<path d="M6 12V14" stroke="#6C6E75" stroke-width="1.5" stroke-linecap="round" stroke-linejoin="round"/>
<path d="M6 6V8" stroke="#6C6E75" stroke-width="1.5" stroke-linecap="round" stroke-linejoin="round"/>
<path d="M6 17V19" stroke="#6C6E75" stroke-width="1.5" stroke-linecap="round" stroke-linejoin="round"/>
<path d="M6 13L4 13" stroke="#6C6E75" stroke-width="1.5" stroke-linecap="round" stroke-linejoin="round"/>
<path d="M6 7L4 7" stroke="#6C6E75" stroke-width="1.5" stroke-linecap="round" stroke-linejoin="round"/>
<path d="M6 18L4 18" stroke="#6C6E75" stroke-width="1.5" stroke-linecap="round" stroke-linejoin="round"/>
<path d="M4 5C4 3.34315 5.34315 2 7 2H18C19.6569 2 21 3.34315 21 5V19C21 20.6569 19.6569 22 18 22H7C5.34315 22 4 20.6569 4 19V18" stroke="#6C6E75" stroke-width="1.5" stroke-linecap="round" stroke-linejoin="round"/>
<path d="M4 7V9.5" stroke="#6C6E75" stroke-width="1.5" stroke-linecap="round" stroke-linejoin="round"/>
<circle cx="13" cy="9" r="3" fill="#6C6E75"/>
<ellipse cx="13" cy="15.5" rx="5" ry="1.5" fill="#6C6E75"/>
</svg>
