<svg width="24" height="24" viewBox="0 0 24 24" fill="none" xmlns="http://www.w3.org/2000/svg">
<path d="M10.332 3.88281C11.2345 2.91758 12.7655 2.91758 13.668 3.88281C14.4137 4.68073 15.468 5.11785 16.5596 5.08105C17.8805 5.03641 18.9636 6.1195 18.9189 7.44043C18.8822 8.53195 19.3193 9.58629 20.1172 10.332C21.0824 11.2345 21.0824 12.7655 20.1172 13.668C19.3193 14.4137 18.8822 15.468 18.9189 16.5596C18.9636 17.8805 17.8805 18.9636 16.5596 18.9189C15.468 18.8822 14.4137 19.3193 13.668 20.1172C12.7655 21.0824 11.2345 21.0824 10.332 20.1172C9.58629 19.3193 8.53195 18.8822 7.44043 18.9189C6.1195 18.9636 5.03641 17.8805 5.08105 16.5596C5.11785 15.468 4.68073 14.4137 3.88281 13.668C2.91758 12.7655 2.91758 11.2345 3.88281 10.332C4.68073 9.58629 5.11785 8.53195 5.08105 7.44043C5.03641 6.1195 6.1195 5.03641 7.44043 5.08105C8.53195 5.11785 9.58629 4.68073 10.332 3.88281Z" stroke="#6C6E75" stroke-width="1.5"/>
<path d="M14.9697 7.96967C15.2626 7.67678 15.7373 7.67678 16.0302 7.96967C16.3231 8.26256 16.3231 8.73732 16.0302 9.03022L9.03022 16.0302C8.73732 16.3231 8.26256 16.3231 7.96967 16.0302C7.67678 15.7373 7.67678 15.2626 7.96967 14.9697L14.9697 7.96967ZM14.4999 13.4999C15.0522 13.4999 15.4999 13.9477 15.4999 14.4999C15.4999 15.0522 15.0522 15.4999 14.4999 15.4999C13.9477 15.4999 13.4999 15.0522 13.4999 14.4999C13.4999 13.9477 13.9477 13.4999 14.4999 13.4999ZM9.49994 8.49994C10.0522 8.49994 10.4999 8.94766 10.4999 9.49994C10.4999 10.0522 10.0522 10.4999 9.49994 10.4999C8.94766 10.4999 8.49994 10.0522 8.49994 9.49994C8.49994 8.94766 8.94766 8.49994 9.49994 8.49994Z" fill="#6C6E75"/>
</svg>
