<svg width="24" height="24" viewBox="0 0 24 24" fill="none" xmlns="http://www.w3.org/2000/svg">
<circle cx="12" cy="12" r="9.25" stroke="#6C6E75" stroke-width="1.5"/>
<path d="M9 9.5C9 7.84315 10.3431 6.5 12 6.5H12.0688C13.6876 6.5 15 7.81236 15 9.43125C15 10.4113 14.5102 11.3265 13.6947 11.8702L13.5 12C12.5629 12.6247 12 13.6765 12 14.8028V15" stroke="#6C6E75" stroke-width="1.5" stroke-linecap="round" stroke-linejoin="round"/>
<path d="M13 17.5C13 18.0523 12.5523 18.5 12 18.5C11.4477 18.5 11 18.0523 11 17.5C11 16.9477 11.4477 16.5 12 16.5C12.5523 16.5 13 16.9477 13 17.5Z" fill="#6C6E75"/>
</svg>
